<mxfile host="65bd71144e">
    <diagram id="NFmvHeVOpDymkLYs1n6z" name="Page-2">
        <mxGraphModel dx="1076" dy="660" grid="1" gridSize="10" guides="1" tooltips="1" connect="1" arrows="1" fold="1" page="1" pageScale="1" pageWidth="827" pageHeight="1169" background="none" math="0" shadow="0">
            <root>
                <mxCell id="0"/>
                <mxCell id="1" parent="0"/>
                <mxCell id="GJhovxHvbcM6OWODD5yA-1" value="Function Process Image" style="aspect=fixed;html=1;points=[];align=center;image;fontSize=12;image=img/lib/azure2/compute/Function_Apps.svg;" parent="1" vertex="1">
                    <mxGeometry x="474" y="19" width="68" height="60" as="geometry"/>
                </mxCell>
                <mxCell id="fPEvHvdyoC7zUVdlnlQl-1" style="edgeStyle=none;html=1;" parent="1" source="GJhovxHvbcM6OWODD5yA-2" target="GJhovxHvbcM6OWODD5yA-5" edge="1">
                    <mxGeometry relative="1" as="geometry"/>
                </mxCell>
                <mxCell id="4Hts2LZpl-cG0n7KmWJ0-17" value="5 - Save path storage" style="edgeLabel;html=1;align=center;verticalAlign=middle;resizable=0;points=[];" parent="fPEvHvdyoC7zUVdlnlQl-1" vertex="1" connectable="0">
                    <mxGeometry x="-0.2134" y="3" relative="1" as="geometry">
                        <mxPoint x="11" y="3" as="offset"/>
                    </mxGeometry>
                </mxCell>
                <mxCell id="4Hts2LZpl-cG0n7KmWJ0-2" style="edgeStyle=none;html=1;entryX=1.013;entryY=0.96;entryDx=0;entryDy=0;entryPerimeter=0;" parent="1" source="GJhovxHvbcM6OWODD5yA-2" target="4Hts2LZpl-cG0n7KmWJ0-1" edge="1">
                    <mxGeometry relative="1" as="geometry"/>
                </mxCell>
                <mxCell id="4Hts2LZpl-cG0n7KmWJ0-12" value="4 - Validate and move to private container" style="edgeLabel;html=1;align=center;verticalAlign=middle;resizable=0;points=[];rotation=50;" parent="4Hts2LZpl-cG0n7KmWJ0-2" vertex="1" connectable="0">
                    <mxGeometry x="-0.0651" y="3" relative="1" as="geometry">
                        <mxPoint x="-7" y="-11" as="offset"/>
                    </mxGeometry>
                </mxCell>
                <mxCell id="GJhovxHvbcM6OWODD5yA-2" value="Application (server)" style="aspect=fixed;html=1;points=[];align=center;image;fontSize=12;image=img/lib/azure2/compute/App_Services.svg;" parent="1" vertex="1">
                    <mxGeometry x="454" y="285" width="64" height="64" as="geometry"/>
                </mxCell>
                <mxCell id="GJhovxHvbcM6OWODD5yA-5" value="Database" style="aspect=fixed;html=1;points=[];align=center;image;fontSize=12;image=img/lib/azure2/preview/Time_Series_Data_Sets.svg;" parent="1" vertex="1">
                    <mxGeometry x="684" y="284" width="48" height="64" as="geometry"/>
                </mxCell>
                <mxCell id="GJhovxHvbcM6OWODD5yA-8" style="edgeStyle=none;html=1;entryX=-0.012;entryY=0.189;entryDx=0;entryDy=0;entryPerimeter=0;startArrow=classic;startFill=1;exitX=1.069;exitY=0.117;exitDx=0;exitDy=0;exitPerimeter=0;" parent="1" source="GJhovxHvbcM6OWODD5yA-6" target="GJhovxHvbcM6OWODD5yA-2" edge="1">
                    <mxGeometry relative="1" as="geometry"/>
                </mxCell>
                <mxCell id="4Hts2LZpl-cG0n7KmWJ0-10" value="1 - Auth and request SAS Token" style="edgeLabel;html=1;align=center;verticalAlign=middle;resizable=0;points=[];" parent="GJhovxHvbcM6OWODD5yA-8" vertex="1" connectable="0">
                    <mxGeometry x="-0.3209" y="3" relative="1" as="geometry">
                        <mxPoint x="38" y="4" as="offset"/>
                    </mxGeometry>
                </mxCell>
                <mxCell id="4Hts2LZpl-cG0n7KmWJ0-7" style="edgeStyle=none;html=1;entryX=0.019;entryY=0.96;entryDx=0;entryDy=0;entryPerimeter=0;" parent="1" source="GJhovxHvbcM6OWODD5yA-6" target="4Hts2LZpl-cG0n7KmWJ0-1" edge="1">
                    <mxGeometry relative="1" as="geometry"/>
                </mxCell>
                <mxCell id="4Hts2LZpl-cG0n7KmWJ0-16" value="&lt;span style=&quot;font-size: 12px;&quot;&gt;2 - Upload file to temp container&lt;/span&gt;" style="edgeLabel;html=1;align=center;verticalAlign=middle;resizable=0;points=[];rotation=-60;" parent="4Hts2LZpl-cG0n7KmWJ0-7" vertex="1" connectable="0">
                    <mxGeometry x="-0.0721" y="3" relative="1" as="geometry">
                        <mxPoint as="offset"/>
                    </mxGeometry>
                </mxCell>
                <mxCell id="4Hts2LZpl-cG0n7KmWJ0-13" style="edgeStyle=none;html=1;entryX=-0.056;entryY=0.829;entryDx=0;entryDy=0;entryPerimeter=0;startArrow=classic;startFill=1;exitX=1.015;exitY=0.892;exitDx=0;exitDy=0;exitPerimeter=0;" parent="1" source="GJhovxHvbcM6OWODD5yA-6" target="GJhovxHvbcM6OWODD5yA-2" edge="1">
                    <mxGeometry relative="1" as="geometry"/>
                </mxCell>
                <mxCell id="4Hts2LZpl-cG0n7KmWJ0-14" value="3 - Confirm upload" style="edgeLabel;html=1;align=center;verticalAlign=middle;resizable=0;points=[];" parent="4Hts2LZpl-cG0n7KmWJ0-13" vertex="1" connectable="0">
                    <mxGeometry x="-0.2357" y="2" relative="1" as="geometry">
                        <mxPoint as="offset"/>
                    </mxGeometry>
                </mxCell>
                <mxCell id="GJhovxHvbcM6OWODD5yA-6" value="Browser (client)" style="aspect=fixed;html=1;points=[];align=center;image;fontSize=12;image=img/lib/azure2/app_services/App_Service_Domains.svg;" parent="1" vertex="1">
                    <mxGeometry x="35" y="296" width="65" height="52" as="geometry"/>
                </mxCell>
                <mxCell id="4Hts2LZpl-cG0n7KmWJ0-3" style="edgeStyle=none;html=1;entryX=0.017;entryY=0.515;entryDx=0;entryDy=0;entryPerimeter=0;startArrow=classic;startFill=1;" parent="1" source="4Hts2LZpl-cG0n7KmWJ0-1" target="GJhovxHvbcM6OWODD5yA-1" edge="1">
                    <mxGeometry relative="1" as="geometry">
                        <mxPoint x="430" y="49" as="targetPoint"/>
                    </mxGeometry>
                </mxCell>
                <mxCell id="4Hts2LZpl-cG0n7KmWJ0-18" value="6 - Listen upload file and process" style="edgeLabel;html=1;align=center;verticalAlign=middle;resizable=0;points=[];" parent="4Hts2LZpl-cG0n7KmWJ0-3" vertex="1" connectable="0">
                    <mxGeometry x="-0.2515" y="1" relative="1" as="geometry">
                        <mxPoint x="28" y="1" as="offset"/>
                    </mxGeometry>
                </mxCell>
                <mxCell id="4Hts2LZpl-cG0n7KmWJ0-1" value="Blob Storage" style="aspect=fixed;html=1;points=[];align=center;image;fontSize=12;image=img/lib/azure2/storage/Storage_Accounts.svg;" parent="1" vertex="1">
                    <mxGeometry x="204" y="23" width="65" height="52" as="geometry"/>
                </mxCell>
                <mxCell id="2" value="1 - POST - /upload/generate-sas-token&lt;br&gt;Gerar SAS Token e retornar&lt;br&gt;container&lt;br&gt;filename&lt;br&gt;sas token&lt;br&gt;account" style="text;html=1;strokeColor=none;fillColor=none;align=center;verticalAlign=middle;whiteSpace=wrap;rounded=0;" parent="1" vertex="1">
                    <mxGeometry x="444" y="130" width="300" height="90" as="geometry"/>
                </mxCell>
                <mxCell id="3" value="3 - POST - /upload/confirm&lt;br&gt;blob name" style="text;html=1;strokeColor=none;fillColor=none;align=center;verticalAlign=middle;whiteSpace=wrap;rounded=0;" parent="1" vertex="1">
                    <mxGeometry x="474" y="390" width="220" height="60" as="geometry"/>
                </mxCell>
                <mxCell id="4" value="/[folder_name]_tmp (policy)&lt;br&gt;/[folder_name]" style="text;html=1;strokeColor=none;fillColor=none;align=left;verticalAlign=middle;whiteSpace=wrap;rounded=0;" parent="1" vertex="1">
                    <mxGeometry x="514" y="430" width="180" height="40" as="geometry"/>
                </mxCell>
                <mxCell id="5" value="4 - GET - /upload/filename&lt;br&gt;url da imagem com sas token" style="text;html=1;strokeColor=none;fillColor=none;align=center;verticalAlign=middle;whiteSpace=wrap;rounded=0;" parent="1" vertex="1">
                    <mxGeometry x="474" y="490" width="220" height="60" as="geometry"/>
                </mxCell>
                <mxCell id="6" value="Tabela&lt;br&gt;imagens" style="text;html=1;strokeColor=none;fillColor=none;align=center;verticalAlign=middle;whiteSpace=wrap;rounded=0;" parent="1" vertex="1">
                    <mxGeometry x="694" y="240" width="60" height="30" as="geometry"/>
                </mxCell>
            </root>
        </mxGraphModel>
    </diagram>
</mxfile>